<?xml version="1.0" encoding="utf-8"?>
<svg viewBox="0 0 644.435 644.429" xmlns="http://www.w3.org/2000/svg">
  <path id="_x23_C62032" d="M 426.11 423.603 C 348.062 418.123 262.819 381.514 252.588 254.817 C 242.359 381.514 170.879 418.123 92.83 423.603 C 170.879 429.082 242.359 465.686 252.588 592.383 C 262.819 465.686 348.062 429.082 426.11 423.603 Z" style="fill: currentColor;"/>
  <path id="path-1" d="M 553.707 242.988 C 497.3 239.028 435.692 212.57 428.3 121.004 C 420.906 212.57 369.246 239.029 312.839 242.988 C 369.246 246.949 420.906 273.403 428.3 364.969 C 435.692 273.403 497.3 246.949 553.707 242.988 Z" style="fill: currentColor;"/>
  <path id="path-2" d="M 298.619 157.329 C 249.934 153.911 196.761 131.075 190.382 52.047 C 184.001 131.075 139.413 153.913 90.729 157.329 C 139.413 160.748 184.001 183.579 190.382 262.609 C 196.761 183.579 249.934 160.748 298.619 157.329 Z" style="fill: currentColor;"/>
</svg>